<mxfile host="Electron" agent="Mozilla/5.0 (Windows NT 10.0; Win64; x64) AppleWebKit/537.36 (KHTML, like Gecko) draw.io/26.0.16 Chrome/132.0.6834.196 Electron/34.2.0 Safari/537.36" version="26.0.16">
  <diagram name="第 1 页" id="QRG4NogOlAGouBmoYJWM">
    <mxGraphModel dx="989" dy="577" grid="1" gridSize="10" guides="1" tooltips="1" connect="1" arrows="1" fold="1" page="1" pageScale="1" pageWidth="827" pageHeight="1169" math="0" shadow="0">
      <root>
        <mxCell id="0" />
        <mxCell id="1" parent="0" />
        <mxCell id="4fUZzTiB3mX0XlUdINxK-7" style="edgeStyle=orthogonalEdgeStyle;rounded=0;orthogonalLoop=1;jettySize=auto;html=1;exitX=1;exitY=0.5;exitDx=0;exitDy=0;entryX=0;entryY=0.5;entryDx=0;entryDy=0;" edge="1" parent="1" source="4fUZzTiB3mX0XlUdINxK-1" target="4fUZzTiB3mX0XlUdINxK-2">
          <mxGeometry relative="1" as="geometry" />
        </mxCell>
        <mxCell id="4fUZzTiB3mX0XlUdINxK-8" style="edgeStyle=orthogonalEdgeStyle;rounded=0;orthogonalLoop=1;jettySize=auto;html=1;exitX=1;exitY=0.5;exitDx=0;exitDy=0;entryX=0;entryY=0.5;entryDx=0;entryDy=0;" edge="1" parent="1" source="4fUZzTiB3mX0XlUdINxK-1" target="4fUZzTiB3mX0XlUdINxK-6">
          <mxGeometry relative="1" as="geometry" />
        </mxCell>
        <mxCell id="4fUZzTiB3mX0XlUdINxK-9" style="edgeStyle=orthogonalEdgeStyle;rounded=0;orthogonalLoop=1;jettySize=auto;html=1;exitX=1;exitY=0.5;exitDx=0;exitDy=0;entryX=0;entryY=0.5;entryDx=0;entryDy=0;" edge="1" parent="1" source="4fUZzTiB3mX0XlUdINxK-1" target="4fUZzTiB3mX0XlUdINxK-4">
          <mxGeometry relative="1" as="geometry" />
        </mxCell>
        <mxCell id="4fUZzTiB3mX0XlUdINxK-10" style="edgeStyle=orthogonalEdgeStyle;rounded=0;orthogonalLoop=1;jettySize=auto;html=1;exitX=1;exitY=0.5;exitDx=0;exitDy=0;entryX=0;entryY=0.5;entryDx=0;entryDy=0;" edge="1" parent="1" source="4fUZzTiB3mX0XlUdINxK-1" target="4fUZzTiB3mX0XlUdINxK-3">
          <mxGeometry relative="1" as="geometry" />
        </mxCell>
        <mxCell id="4fUZzTiB3mX0XlUdINxK-11" style="edgeStyle=orthogonalEdgeStyle;rounded=0;orthogonalLoop=1;jettySize=auto;html=1;entryX=0;entryY=0.5;entryDx=0;entryDy=0;" edge="1" parent="1" source="4fUZzTiB3mX0XlUdINxK-1" target="4fUZzTiB3mX0XlUdINxK-5">
          <mxGeometry relative="1" as="geometry" />
        </mxCell>
        <mxCell id="4fUZzTiB3mX0XlUdINxK-1" value="X(N)" style="text;html=1;align=center;verticalAlign=middle;whiteSpace=wrap;rounded=0;" vertex="1" parent="1">
          <mxGeometry x="240" y="450" width="30" height="30" as="geometry" />
        </mxCell>
        <mxCell id="4fUZzTiB3mX0XlUdINxK-17" style="rounded=0;orthogonalLoop=1;jettySize=auto;html=1;exitX=1;exitY=0.5;exitDx=0;exitDy=0;entryX=0;entryY=0;entryDx=0;entryDy=0;" edge="1" parent="1" source="4fUZzTiB3mX0XlUdINxK-2" target="4fUZzTiB3mX0XlUdINxK-13">
          <mxGeometry relative="1" as="geometry" />
        </mxCell>
        <mxCell id="4fUZzTiB3mX0XlUdINxK-2" value="&amp;gt;&amp;gt;1" style="rounded=0;whiteSpace=wrap;html=1;" vertex="1" parent="1">
          <mxGeometry x="360" y="290" width="40" height="30" as="geometry" />
        </mxCell>
        <mxCell id="4fUZzTiB3mX0XlUdINxK-3" value="&amp;gt;&amp;gt;3&lt;span style=&quot;color: rgba(0, 0, 0, 0); font-family: monospace; font-size: 0px; text-align: start; text-wrap-mode: nowrap;&quot;&gt;%3CmxGraphModel%3E%3Croot%3E%3CmxCell%20id%3D%220%22%2F%3E%3CmxCell%20id%3D%221%22%20parent%3D%220%22%2F%3E%3CmxCell%20id%3D%222%22%20value%3D%22%26amp%3Bgt%3B%26amp%3Bgt%3B1%22%20style%3D%22rounded%3D0%3BwhiteSpace%3Dwrap%3Bhtml%3D1%3B%22%20vertex%3D%221%22%20parent%3D%221%22%3E%3CmxGeometry%20x%3D%22354%22%20y%3D%22280%22%20width%3D%2246%22%20height%3D%2230%22%20as%3D%22geometry%22%2F%3E%3C%2FmxCell%3E%3C%2Froot%3E%3C%2FmxGraphModel%3E&lt;/span&gt;" style="rounded=0;whiteSpace=wrap;html=1;" vertex="1" parent="1">
          <mxGeometry x="360" y="370" width="40" height="30" as="geometry" />
        </mxCell>
        <mxCell id="4fUZzTiB3mX0XlUdINxK-21" style="rounded=0;orthogonalLoop=1;jettySize=auto;html=1;exitX=1;exitY=0.5;exitDx=0;exitDy=0;entryX=0;entryY=0;entryDx=0;entryDy=0;" edge="1" parent="1" source="4fUZzTiB3mX0XlUdINxK-4" target="4fUZzTiB3mX0XlUdINxK-16">
          <mxGeometry relative="1" as="geometry" />
        </mxCell>
        <mxCell id="4fUZzTiB3mX0XlUdINxK-4" value="&amp;gt;&amp;gt;6&lt;span style=&quot;color: rgba(0, 0, 0, 0); font-family: monospace; font-size: 0px; text-align: start; text-wrap-mode: nowrap;&quot;&gt;%3CmxGraphModel%3E%3Croot%3E%3CmxCell%20id%3D%220%22%2F%3E%3CmxCell%20id%3D%221%22%20parent%3D%220%22%2F%3E%3CmxCell%20id%3D%222%22%20value%3D%22%26amp%3Bgt%3B%26amp%3Bgt%3B1%22%20style%3D%22rounded%3D0%3BwhiteSpace%3Dwrap%3Bhtml%3D1%3B%22%20vertex%3D%221%22%20parent%3D%221%22%3E%3CmxGeometry%20x%3D%22354%22%20y%3D%22280%22%20width%3D%2246%22%20height%3D%2230%22%20as%3D%22geometry%22%2F%3E%3C%2FmxCell%3E%3C%2Froot%3E%3C%2FmxGraphModel%3E&lt;/span&gt;" style="rounded=0;whiteSpace=wrap;html=1;" vertex="1" parent="1">
          <mxGeometry x="360" y="450" width="40" height="30" as="geometry" />
        </mxCell>
        <mxCell id="4fUZzTiB3mX0XlUdINxK-19" style="rounded=0;orthogonalLoop=1;jettySize=auto;html=1;exitX=1;exitY=0.5;exitDx=0;exitDy=0;entryX=0;entryY=0;entryDx=0;entryDy=0;" edge="1" parent="1" source="4fUZzTiB3mX0XlUdINxK-5" target="4fUZzTiB3mX0XlUdINxK-15">
          <mxGeometry relative="1" as="geometry" />
        </mxCell>
        <mxCell id="4fUZzTiB3mX0XlUdINxK-5" value="&amp;gt;&amp;gt;9&lt;span style=&quot;color: rgba(0, 0, 0, 0); font-family: monospace; font-size: 0px; text-align: start; text-wrap-mode: nowrap;&quot;&gt;%3CmxGraphModel%3E%3Croot%3E%3CmxCell%20id%3D%220%22%2F%3E%3CmxCell%20id%3D%221%22%20parent%3D%220%22%2F%3E%3CmxCell%20id%3D%222%22%20value%3D%22%26amp%3Bgt%3B%26amp%3Bgt%3B1%22%20style%3D%22rounded%3D0%3BwhiteSpace%3Dwrap%3Bhtml%3D1%3B%22%20vertex%3D%221%22%20parent%3D%221%22%3E%3CmxGeometry%20x%3D%22354%22%20y%3D%22280%22%20width%3D%2246%22%20height%3D%2230%22%20as%3D%22geometry%22%2F%3E%3C%2FmxCell%3E%3C%2Froot%3E%3C%2FmxGraphModel%3E&lt;/span&gt;" style="rounded=0;whiteSpace=wrap;html=1;" vertex="1" parent="1">
          <mxGeometry x="360" y="530" width="40" height="30" as="geometry" />
        </mxCell>
        <mxCell id="4fUZzTiB3mX0XlUdINxK-20" style="rounded=0;orthogonalLoop=1;jettySize=auto;html=1;exitX=1;exitY=0.5;exitDx=0;exitDy=0;entryX=0;entryY=1;entryDx=0;entryDy=0;" edge="1" parent="1" source="4fUZzTiB3mX0XlUdINxK-6" target="4fUZzTiB3mX0XlUdINxK-15">
          <mxGeometry relative="1" as="geometry" />
        </mxCell>
        <mxCell id="4fUZzTiB3mX0XlUdINxK-6" value="&amp;gt;&amp;gt;11&lt;span style=&quot;color: rgba(0, 0, 0, 0); font-family: monospace; font-size: 0px; text-align: start; text-wrap-mode: nowrap;&quot;&gt;%3CmxGraphModel%3E%3Croot%3E%3CmxCell%20id%3D%220%22%2F%3E%3CmxCell%20id%3D%221%22%20parent%3D%220%22%2F%3E%3CmxCell%20id%3D%222%22%20value%3D%22%26amp%3Bgt%3B%26amp%3Bgt%3B1%22%20style%3D%22rounded%3D0%3BwhiteSpace%3Dwrap%3Bhtml%3D1%3B%22%20vertex%3D%221%22%20parent%3D%221%22%3E%3CmxGeometry%20x%3D%22354%22%20y%3D%22280%22%20width%3D%2246%22%20height%3D%2230%22%20as%3D%22geometry%22%2F%3E%3C%2FmxCell%3E%3C%2Froot%3E%3C%2FmxGraphModel%3E&lt;/span&gt;" style="rounded=0;whiteSpace=wrap;html=1;" vertex="1" parent="1">
          <mxGeometry x="360" y="610" width="40" height="30" as="geometry" />
        </mxCell>
        <mxCell id="4fUZzTiB3mX0XlUdINxK-23" style="rounded=0;orthogonalLoop=1;jettySize=auto;html=1;exitX=1;exitY=0.5;exitDx=0;exitDy=0;entryX=0;entryY=0;entryDx=0;entryDy=0;" edge="1" parent="1" source="4fUZzTiB3mX0XlUdINxK-13" target="4fUZzTiB3mX0XlUdINxK-14">
          <mxGeometry relative="1" as="geometry" />
        </mxCell>
        <mxCell id="4fUZzTiB3mX0XlUdINxK-13" value="" style="shape=orEllipse;perimeter=ellipsePerimeter;whiteSpace=wrap;html=1;backgroundOutline=1;" vertex="1" parent="1">
          <mxGeometry x="450" y="330" width="30" height="30" as="geometry" />
        </mxCell>
        <mxCell id="4fUZzTiB3mX0XlUdINxK-25" style="edgeStyle=orthogonalEdgeStyle;rounded=0;orthogonalLoop=1;jettySize=auto;html=1;exitX=1;exitY=0.5;exitDx=0;exitDy=0;" edge="1" parent="1" source="4fUZzTiB3mX0XlUdINxK-14">
          <mxGeometry relative="1" as="geometry">
            <mxPoint x="679.9999999999998" y="465.0689655172414" as="targetPoint" />
          </mxGeometry>
        </mxCell>
        <mxCell id="4fUZzTiB3mX0XlUdINxK-14" value="" style="shape=lineEllipse;perimeter=ellipsePerimeter;whiteSpace=wrap;html=1;backgroundOutline=1;" vertex="1" parent="1">
          <mxGeometry x="610" y="450" width="30" height="30" as="geometry" />
        </mxCell>
        <mxCell id="4fUZzTiB3mX0XlUdINxK-22" style="rounded=0;orthogonalLoop=1;jettySize=auto;html=1;exitX=1;exitY=0.5;exitDx=0;exitDy=0;entryX=0;entryY=1;entryDx=0;entryDy=0;" edge="1" parent="1" source="4fUZzTiB3mX0XlUdINxK-15" target="4fUZzTiB3mX0XlUdINxK-16">
          <mxGeometry relative="1" as="geometry" />
        </mxCell>
        <mxCell id="4fUZzTiB3mX0XlUdINxK-15" value="" style="shape=orEllipse;perimeter=ellipsePerimeter;whiteSpace=wrap;html=1;backgroundOutline=1;" vertex="1" parent="1">
          <mxGeometry x="450" y="570" width="30" height="30" as="geometry" />
        </mxCell>
        <mxCell id="4fUZzTiB3mX0XlUdINxK-24" style="rounded=0;orthogonalLoop=1;jettySize=auto;html=1;exitX=1;exitY=0.5;exitDx=0;exitDy=0;entryX=0;entryY=1;entryDx=0;entryDy=0;" edge="1" parent="1" source="4fUZzTiB3mX0XlUdINxK-16" target="4fUZzTiB3mX0XlUdINxK-14">
          <mxGeometry relative="1" as="geometry" />
        </mxCell>
        <mxCell id="4fUZzTiB3mX0XlUdINxK-16" value="" style="shape=orEllipse;perimeter=ellipsePerimeter;whiteSpace=wrap;html=1;backgroundOutline=1;" vertex="1" parent="1">
          <mxGeometry x="530" y="490" width="30" height="30" as="geometry" />
        </mxCell>
        <mxCell id="4fUZzTiB3mX0XlUdINxK-18" style="rounded=0;orthogonalLoop=1;jettySize=auto;html=1;exitX=1;exitY=0.5;exitDx=0;exitDy=0;entryX=0.125;entryY=0.686;entryDx=0;entryDy=0;entryPerimeter=0;" edge="1" parent="1" source="4fUZzTiB3mX0XlUdINxK-3" target="4fUZzTiB3mX0XlUdINxK-13">
          <mxGeometry relative="1" as="geometry" />
        </mxCell>
      </root>
    </mxGraphModel>
  </diagram>
</mxfile>
